<svg width="97" height="24" viewBox="0 0 97 24" fill="none" xmlns="http://www.w3.org/2000/svg">
<path d="M24.7012 15.4906V8.32586H23.3174V6.45062H24.7012V3.52783H26.8092V6.45062H28.193V8.32586H26.8092V15.4906H24.7012Z" fill="#0071BC"/>
<path d="M33.4177 8.28608C32.6029 8.35074 32.0339 8.5706 31.7106 8.93271C31.3872 9.29483 31.2321 9.94146 31.2321 10.8855V15.4896H29.124V6.44964H31.1027V7.49719C31.426 7.09627 31.7623 6.79882 32.1503 6.60483C32.5253 6.41084 32.9521 6.32031 33.4306 6.32031V8.28608H33.4177Z" fill="#0071BC"/>
<path d="M40.4529 15.4899V14.507C40.1426 14.9209 39.7934 15.2183 39.3925 15.4252C38.9915 15.6192 38.5389 15.7227 38.0345 15.7227C36.8965 15.7227 36.03 15.3735 35.4221 14.6751C34.8143 13.9768 34.5039 12.9809 34.5039 11.6747V6.43701H36.6378V10.4979C36.6378 11.7135 36.7801 12.5542 37.0516 13.0068C37.3362 13.4595 37.8147 13.6793 38.5001 13.6793C39.1985 13.6793 39.7028 13.4336 40.0132 12.9292C40.3236 12.4248 40.4659 11.5713 40.4659 10.3685V6.44995H42.5351V15.4899H40.4529Z" fill="#0071BC"/>
<path d="M46.0272 11.6356C46.1048 12.2822 46.3634 12.7995 46.8031 13.1746C47.2558 13.5496 47.8248 13.7436 48.5361 13.7436C49.0017 13.7436 49.4285 13.6401 49.8035 13.4461C50.1786 13.2522 50.476 12.9676 50.6959 12.6184H52.9591C52.5711 13.6013 52.0021 14.3644 51.239 14.9205C50.476 15.4636 49.5966 15.7352 48.5878 15.7352C47.9153 15.7352 47.2946 15.6188 46.7255 15.3731C46.1565 15.1403 45.6521 14.7782 45.1995 14.3126C44.7727 13.8729 44.4365 13.3556 44.2037 12.7736C43.9709 12.1917 43.8545 11.5968 43.8545 10.976C43.8545 10.3423 43.958 9.7474 44.1778 9.19129C44.3977 8.63519 44.708 8.13081 45.1348 7.6911C45.6004 7.19966 46.1177 6.82461 46.6997 6.56596C47.2817 6.30731 47.8766 6.17798 48.4973 6.17798C49.2862 6.17798 50.0104 6.35904 50.6959 6.70822C51.3813 7.07033 51.9503 7.56178 52.4289 8.20841C52.7134 8.59639 52.9332 9.0361 53.0755 9.51461C53.2177 9.99312 53.2824 10.5492 53.2824 11.17C53.2824 11.2217 53.2824 11.2993 53.2695 11.3898C53.2695 11.4933 53.2565 11.5709 53.2565 11.6097H46.0272V11.6356ZM51.0192 9.96725C50.8381 9.35942 50.5407 8.90677 50.1139 8.59639C49.6871 8.28601 49.1569 8.11788 48.5103 8.11788C47.9542 8.11788 47.4498 8.286 47.0101 8.62225C46.5704 8.9585 46.2729 9.41115 46.1177 9.96725H51.0192Z" fill="#0071BC"/>
<path d="M56.6574 6.44936V7.47104C56.9678 7.0572 57.317 6.75974 57.7179 6.55282C58.1188 6.35883 58.5714 6.25537 59.0758 6.25537C59.8 6.25537 60.4337 6.3847 60.951 6.64335C61.4683 6.902 61.9081 7.30292 62.2831 7.84609C62.6452 7.30292 63.0332 6.91494 63.4858 6.64335C63.9255 6.3847 64.417 6.25537 64.9602 6.25537C66.0724 6.25537 66.913 6.60455 67.5079 7.30292C68.1028 8.00128 68.4003 8.9971 68.4003 10.2904V15.4893H66.331V11.4802C66.331 10.2516 66.2017 9.42388 65.9301 8.97123C65.6585 8.53152 65.193 8.31167 64.5205 8.31167C63.8221 8.31167 63.3306 8.55739 63.0332 9.06176C62.7357 9.5532 62.5805 10.4068 62.5805 11.6095V15.4893H60.4984V11.4802C60.4984 10.2645 60.3561 9.42388 60.0845 8.98417C59.813 8.54446 59.3215 8.3246 58.6361 8.3246C57.9377 8.3246 57.4333 8.57032 57.123 9.07469C56.8126 9.56613 56.6574 10.4197 56.6574 11.6224V15.4893H54.627V6.44936H56.6574Z" fill="#22B573"/>
<path d="M71.8534 11.6356C71.9309 12.2822 72.1896 12.7995 72.6293 13.1746C73.082 13.5496 73.651 13.7436 74.3623 13.7436C74.8279 13.7436 75.2546 13.6401 75.6297 13.4461C76.0047 13.2522 76.3022 12.9676 76.522 12.6184H78.7853C78.3973 13.6013 77.8282 14.3644 77.0652 14.9205C76.3022 15.4636 75.4228 15.7352 74.414 15.7352C73.7415 15.7352 73.1207 15.6188 72.5517 15.3731C71.9827 15.1403 71.4783 14.7782 71.0257 14.3126C70.5989 13.8729 70.2626 13.3556 70.0298 12.7736C69.7971 12.1917 69.6807 11.5968 69.6807 10.976C69.6807 10.3423 69.7841 9.7474 70.004 9.19129C70.2238 8.63519 70.5342 8.13081 70.961 7.6911C71.4266 7.19966 71.9439 6.82461 72.5259 6.56596C73.1078 6.30731 73.7027 6.17798 74.3235 6.17798C75.1124 6.17798 75.8366 6.35904 76.522 6.70822C77.2075 7.07033 77.7765 7.56178 78.255 8.20841C78.5395 8.59639 78.7594 9.0361 78.9017 9.51461C79.0439 9.99312 79.1086 10.5492 79.1086 11.17C79.1086 11.2217 79.1086 11.2993 79.0957 11.3898C79.0957 11.4933 79.0827 11.5709 79.0827 11.6097H71.8534V11.6356ZM76.8454 9.96725C76.6643 9.35942 76.3669 8.90677 75.9401 8.59639C75.5133 8.28601 74.9831 8.11788 74.3364 8.11788C73.7803 8.11788 73.2759 8.286 72.8362 8.62225C72.3965 8.9585 72.0991 9.41115 71.9439 9.96725H76.8454Z" fill="#22B573"/>
<path d="M87.4375 7.17387V3.52686H89.5067V15.4896H87.4375V14.7524C87.0236 15.0757 86.5839 15.3215 86.1183 15.4896C85.6528 15.6448 85.1613 15.7353 84.6182 15.7353C84.0491 15.7353 83.5059 15.6448 83.0016 15.4637C82.4972 15.2827 82.0446 15.024 81.6436 14.6748C81.1005 14.2092 80.6737 13.6402 80.3762 13.0065C80.0788 12.3599 79.9365 11.6744 79.9365 10.9502C79.9365 10.2777 80.0658 9.64401 80.3374 9.02324C80.609 8.41541 80.997 7.87224 81.4884 7.43253C81.9023 7.04455 82.3679 6.74709 82.8981 6.54017C83.4283 6.33324 83.9974 6.22978 84.6052 6.22978C85.1872 6.22978 85.7045 6.30738 86.1442 6.44964C86.6227 6.61777 87.0495 6.85056 87.4375 7.17387ZM87.3469 11.0149C87.3469 10.2389 87.1012 9.59228 86.6098 9.08791C86.1183 8.5706 85.5105 8.31195 84.7733 8.31195C84.0491 8.31195 83.4283 8.5706 82.924 9.10084C82.4067 9.63108 82.1609 10.2518 82.1609 10.989C82.1609 11.752 82.4196 12.3857 82.9369 12.8901C83.4542 13.3945 84.1008 13.6531 84.8897 13.6531C85.5752 13.6531 86.1701 13.3945 86.6486 12.8901C87.1142 12.3599 87.3469 11.7391 87.3469 11.0149Z" fill="#22B573"/>
<path d="M92.624 12.4894V12.6187C92.624 13.0196 92.7275 13.343 92.9344 13.5887C93.1413 13.8344 93.4 13.9637 93.7233 13.9637C94.0337 13.9637 94.2794 13.8732 94.4734 13.6792C94.6674 13.4981 94.7708 13.2524 94.7708 12.9679C94.7708 12.6963 94.6932 12.4765 94.551 12.3083C94.4087 12.1402 94.1501 11.9592 93.7879 11.791C93.581 11.7005 93.2706 11.5712 92.8697 11.4031C92.4688 11.2349 92.2102 11.1056 92.0938 11.0151C91.7575 10.7435 91.5118 10.4331 91.3566 10.0969C91.2014 9.7606 91.1238 9.37262 91.1238 8.94584C91.1238 8.18281 91.3954 7.53618 91.9256 7.01887C92.4559 6.48863 93.1025 6.22998 93.8655 6.22998C94.6674 6.22998 95.314 6.46277 95.7796 6.92834C96.2451 7.39392 96.5038 8.04056 96.5426 8.88118H94.6544V8.82945C94.6544 8.54493 94.5768 8.31214 94.4346 8.14402C94.2794 7.97589 94.0725 7.8983 93.8009 7.8983C93.5681 7.8983 93.3741 7.97589 93.2189 8.14402C93.0637 8.31214 92.9861 8.50613 92.9861 8.75185C92.9861 9.15277 93.387 9.51488 94.2018 9.85113C94.4216 9.94166 94.5768 10.0063 94.6932 10.0581C95.4692 10.4072 95.9994 10.7823 96.2839 11.1832C96.5685 11.5841 96.7107 12.1273 96.7107 12.8127C96.7107 13.6533 96.4262 14.3517 95.8572 14.9078C95.2881 15.4639 94.5639 15.7355 93.6974 15.7355C92.8309 15.7355 92.1196 15.451 91.5894 14.869C91.0591 14.287 90.7617 13.4981 90.71 12.5153L92.624 12.4894Z" fill="#22B573"/>
<path d="M9.67403 21.0121C9.49297 21.1932 9.31192 21.3742 9.13086 21.5553C9.37658 21.3225 9.60937 21.0897 9.85509 20.8569C9.85509 20.8569 9.85509 20.8569 9.84216 20.8569C9.79043 20.8957 9.72576 20.9475 9.67403 21.0121Z" fill="#0071BC"/>
<path d="M10.8633 6.9413C10.8762 6.20414 10.9021 5.47991 11.1349 4.76861C11.5358 3.5788 12.5833 3.00977 13.5662 3.00977C13.9154 3.00977 14.2128 3.25548 14.2775 3.56587C14.3292 3.85039 14.1352 4.12198 13.7861 4.26424C13.7473 4.27717 13.7085 4.2901 13.6697 4.30303C13.5921 4.3289 13.5145 4.35477 13.4369 4.38063C12.8032 4.58755 12.4411 5.0402 12.3893 5.6739C12.3247 6.35933 12.3635 7.04476 12.3247 7.71726C12.3117 7.93712 12.2212 8.1699 12.0919 8.35096C11.9367 8.59668 11.6522 8.60962 11.3806 8.53202C11.1219 8.46736 10.9667 8.27337 10.9279 8.01471C10.8891 7.67846 10.8891 7.30341 10.8633 6.9413Z" fill="#0071BC"/>
<path d="M18.7649 5.51906C18.7649 5.07935 18.7132 4.61377 18.6097 4.18699C18.0795 1.94964 16.2689 0.333055 13.9928 0.0485359C12.2468 -0.17132 10.7337 0.358919 9.47925 1.57459C8.37997 2.648 7.84974 3.96714 7.8368 5.49319C7.82387 8.13146 7.8368 10.7697 7.8368 13.408C7.8368 13.4985 7.8368 13.589 7.8368 13.6925C8.19892 13.6408 8.57397 13.6537 8.97488 13.7313C10.488 14.0158 11.5873 14.8306 12.027 16.3696C12.0917 16.5894 12.1175 16.8093 12.1563 17.0291V17.4301C12.1175 17.637 12.0917 17.8439 12.0399 18.0379C11.8718 18.6716 11.5355 19.2148 11.07 19.6674C10.6691 20.0554 10.2681 20.4434 9.86723 20.8443C9.95776 20.9089 10.0224 20.9607 10.1 21.0124C11.3545 21.9048 12.7512 22.241 14.2643 21.9694C16.9414 21.4909 18.7778 19.2536 18.7778 16.5377C18.7649 12.8648 18.7778 9.19194 18.7649 5.51906ZM16.9414 11.1189C14.4971 11.1189 12.1046 11.1189 9.68618 11.1189C9.68618 11.0542 9.67324 10.9896 9.67324 10.9378C9.67324 9.03674 9.63444 7.13564 9.68618 5.23454C9.73791 3.4369 11.3157 1.89791 13.0357 1.91084C13.6436 1.91084 14.2385 1.91084 14.7946 2.16949C15.9973 2.73853 16.6957 3.69555 16.8897 5.00175C16.9285 5.28627 16.9285 5.57079 16.9285 5.85531C16.9285 7.51069 16.9285 9.15314 16.9285 10.8085C16.9414 10.899 16.9414 11.0025 16.9414 11.1189Z" fill="#0071BC"/>
<path d="M12.0274 18.051C12.0791 17.857 12.105 17.6501 12.1438 17.4431V17.0422C12.105 16.8224 12.0791 16.6025 12.0145 16.3827C11.5747 14.8437 10.4755 14.0289 8.96235 13.7444C8.57436 13.6668 8.18639 13.6539 7.82427 13.7056C7.82427 13.7185 7.82427 13.7185 7.82427 13.7315C7.2423 13.8608 6.75086 14.1453 6.32408 14.5592C6.15595 14.7143 5.9749 14.6497 5.83264 14.5074C5.09547 13.7573 4.17725 13.5633 3.18144 13.7444C1.66832 14.0289 0.569038 14.8437 0.129327 16.3827C0.0646634 16.6025 0.038798 16.8224 0 17.0422C0 17.1716 0 17.3138 0 17.4431C0.038798 17.6501 0.0646636 17.857 0.116394 18.051C0.284519 18.6847 0.620769 19.2279 1.08635 19.6805C2.36668 20.935 3.67288 22.1894 4.95322 23.4439C5.23773 23.7284 5.58692 23.8965 5.96196 24C6.06543 24 6.15595 24 6.25942 24C6.76379 23.8965 7.1259 23.5862 7.47509 23.224C8.01826 22.655 8.56143 22.1118 9.11754 21.5557C8.4709 22.1894 7.82427 22.8102 7.17764 23.4439C7.82427 22.8102 8.4709 22.1765 9.11754 21.5557C9.2986 21.3747 9.47965 21.1936 9.66071 21.0126C9.71244 20.9608 9.77711 20.8962 9.82884 20.8444C9.82884 20.8444 9.82883 20.8444 9.84177 20.8444C10.2427 20.4565 10.6436 20.0685 11.0445 19.6676C11.523 19.2278 11.8593 18.6847 12.0274 18.051ZM10.0616 17.9216C9.94523 18.1932 9.75124 18.4648 9.54432 18.6847C8.5485 19.7064 7.53975 20.7151 6.531 21.7239C6.16889 22.086 5.9361 22.086 5.57398 21.7239C4.56524 20.7151 3.55649 19.7064 2.56067 18.6847C2.15976 18.2838 1.9011 17.8053 1.9011 17.2233C1.9011 16.0335 3.01331 15.2317 4.17725 15.5679C4.6299 15.6972 5.00495 15.9688 5.32826 16.2921C6.03956 16.9776 6.07836 16.9517 6.77672 16.2921C7.13884 15.943 7.55268 15.6584 8.05706 15.542C8.74249 15.3868 9.33739 15.5679 9.79004 16.0981C10.2556 16.6284 10.3461 17.2621 10.0616 17.9216Z" fill="#22B573"/>
</svg>
